<svg viewBox="0 0 72 72" xmlns="http://www.w3.org/2000/svg">
    <g fill="none" stroke="#ffff" stroke-linecap="round" stroke-width="2">
        <g stroke-miterlimit="10">
            <path
                d="m18.7712 52.9565c1.1419 8.6001 8.5393 14.9847 17.214 14.857 9.667 0 17.893-6.833 17.893-16.878l-.001-.001-.657-11.129c-.1631-2.228-2.0023-3.9616-4.236-3.993h-10c-2.0658-.1226-3.8473 1.4362-4 3.5.1821 2.1099 1.8646 3.7781 3.976 3.942l1.049.117c2.187.242 3.976 1.342 3.976 2.442v2 .44c-2.1534.4577-4.1469 1.4784-5.777 2.958" />
            <path d="m18.7712 52.9565c-.3908-2.8898-1.0629-7.8732-1.0629-14.8732" />
            <path d="m17.7083 38.0833-1.9375-18.5157" />
            <path d="m22 17.9167.9435 8.6906" />
            <path d="m43.5 8.25-.4583 14.91" />
            <path d="m51.875 8.4583.5 24.8334" />
            <path d="m15.7708 19.5676c-.7236-7.7302 5.4982-7.5954 6.2292-1.651" />
            <path d="m43.5 8.25c0-5.875 8.375-5.1875 8.375.2083" />
        </g>
        <path
            d="m31.3179 40.6385c-3.322 1.2271-4.997-1.9342-4.8744-4v-7c-.2578-1.933 1.1001-3.709 3.0331-3.9669 1.933-.2578 3.709 1.1001 3.9669 3.0331.0413.3099.0413.6239 0 .9337"
            stroke-linejoin="round" />
        <path
            d="m33.5059 34.0036v-5.3175c-.2578-1.933 1.1001-3.709 3.0331-3.9669 1.933-.2578 3.709 1.1001 3.9669 3.0331.0413.3099.0413.6239 0 .9337l.031 3.5043"
            stroke-linejoin="round" />
    </g>
</svg>